<mxfile host="app.diagrams.net" agent="Mozilla/5.0 (Windows NT 10.0; Win64; x64) AppleWebKit/537.36 (KHTML, like Gecko) Chrome/127.0.0.0 Safari/537.36" version="24.7.7">
  <diagram id="C5RBs43oDa-KdzZeNtuy" name="Page-1">
    <mxGraphModel dx="989" dy="514" grid="1" gridSize="10" guides="1" tooltips="1" connect="1" arrows="1" fold="1" page="1" pageScale="1" pageWidth="827" pageHeight="1169" math="0" shadow="0">
      <root>
        <mxCell id="WIyWlLk6GJQsqaUBKTNV-0" />
        <mxCell id="WIyWlLk6GJQsqaUBKTNV-1" parent="WIyWlLk6GJQsqaUBKTNV-0" />
        <mxCell id="WIyWlLk6GJQsqaUBKTNV-2" value="" style="rounded=0;html=1;jettySize=auto;orthogonalLoop=1;fontSize=11;endArrow=classic;endFill=1;endSize=6;strokeWidth=1;shadow=0;labelBackgroundColor=none;edgeStyle=orthogonalEdgeStyle;entryX=0;entryY=0.5;entryDx=0;entryDy=0;" parent="WIyWlLk6GJQsqaUBKTNV-1" source="WIyWlLk6GJQsqaUBKTNV-3" target="WIyWlLk6GJQsqaUBKTNV-7" edge="1">
          <mxGeometry relative="1" as="geometry">
            <mxPoint x="160" y="73" as="targetPoint" />
          </mxGeometry>
        </mxCell>
        <mxCell id="WIyWlLk6GJQsqaUBKTNV-3" value="MOMDP" style="rounded=1;whiteSpace=wrap;html=1;fontSize=12;glass=0;strokeWidth=1;shadow=0;" parent="WIyWlLk6GJQsqaUBKTNV-1" vertex="1">
          <mxGeometry x="50" y="53" width="60" height="40" as="geometry" />
        </mxCell>
        <mxCell id="WIyWlLk6GJQsqaUBKTNV-4" value="" style="rounded=0;html=1;jettySize=auto;orthogonalLoop=1;fontSize=11;endArrow=classic;endFill=1;endSize=6;strokeWidth=1;shadow=0;labelBackgroundColor=none;edgeStyle=orthogonalEdgeStyle;exitX=1;exitY=0.5;exitDx=0;exitDy=0;entryX=0;entryY=0.5;entryDx=0;entryDy=0;" parent="WIyWlLk6GJQsqaUBKTNV-1" source="WIyWlLk6GJQsqaUBKTNV-7" target="co0fmw5V9fzFpIDW-5lj-5" edge="1">
          <mxGeometry y="20" relative="1" as="geometry">
            <mxPoint as="offset" />
            <mxPoint x="210" y="113" as="sourcePoint" />
            <mxPoint x="280" y="73" as="targetPoint" />
          </mxGeometry>
        </mxCell>
        <mxCell id="WIyWlLk6GJQsqaUBKTNV-7" value="Algorithm" style="rounded=1;whiteSpace=wrap;html=1;fontSize=12;glass=0;strokeWidth=1;shadow=0;" parent="WIyWlLk6GJQsqaUBKTNV-1" vertex="1">
          <mxGeometry x="130" y="53" width="80" height="40" as="geometry" />
        </mxCell>
        <mxCell id="co0fmw5V9fzFpIDW-5lj-0" value="" style="endArrow=none;dashed=1;html=1;dashPattern=1 3;strokeWidth=2;rounded=0;entryX=0;entryY=0;entryDx=0;entryDy=0;" edge="1" parent="WIyWlLk6GJQsqaUBKTNV-1" target="co0fmw5V9fzFpIDW-5lj-9">
          <mxGeometry width="50" height="50" relative="1" as="geometry">
            <mxPoint x="330" y="143" as="sourcePoint" />
            <mxPoint x="330" y="-17" as="targetPoint" />
          </mxGeometry>
        </mxCell>
        <mxCell id="co0fmw5V9fzFpIDW-5lj-1" value="Scalarization" style="rounded=1;whiteSpace=wrap;html=1;fontSize=12;glass=0;strokeWidth=1;shadow=0;" vertex="1" parent="WIyWlLk6GJQsqaUBKTNV-1">
          <mxGeometry x="370" y="53" width="80" height="40" as="geometry" />
        </mxCell>
        <mxCell id="co0fmw5V9fzFpIDW-5lj-3" value="" style="edgeStyle=orthogonalEdgeStyle;rounded=0;orthogonalLoop=1;jettySize=auto;html=1;exitX=1;exitY=0.5;exitDx=0;exitDy=0;entryX=0;entryY=0.5;entryDx=0;entryDy=0;" edge="1" parent="WIyWlLk6GJQsqaUBKTNV-1" source="co0fmw5V9fzFpIDW-5lj-1" target="co0fmw5V9fzFpIDW-5lj-4">
          <mxGeometry relative="1" as="geometry">
            <mxPoint x="500" y="73" as="sourcePoint" />
            <mxPoint x="390" y="73" as="targetPoint" />
          </mxGeometry>
        </mxCell>
        <mxCell id="co0fmw5V9fzFpIDW-5lj-4" value="Single Solution" style="rounded=1;whiteSpace=wrap;html=1;fontSize=12;glass=0;strokeWidth=1;shadow=0;" vertex="1" parent="WIyWlLk6GJQsqaUBKTNV-1">
          <mxGeometry x="470" y="53" width="80" height="40" as="geometry" />
        </mxCell>
        <mxCell id="co0fmw5V9fzFpIDW-5lj-7" value="" style="edgeStyle=orthogonalEdgeStyle;rounded=0;orthogonalLoop=1;jettySize=auto;html=1;" edge="1" parent="WIyWlLk6GJQsqaUBKTNV-1" source="co0fmw5V9fzFpIDW-5lj-5" target="co0fmw5V9fzFpIDW-5lj-1">
          <mxGeometry relative="1" as="geometry" />
        </mxCell>
        <mxCell id="co0fmw5V9fzFpIDW-5lj-5" value="Solution Set" style="rounded=1;whiteSpace=wrap;html=1;fontSize=12;glass=0;strokeWidth=1;shadow=0;" vertex="1" parent="WIyWlLk6GJQsqaUBKTNV-1">
          <mxGeometry x="230" y="53" width="80" height="40" as="geometry" />
        </mxCell>
        <mxCell id="co0fmw5V9fzFpIDW-5lj-8" value="" style="endArrow=classic;html=1;rounded=0;" edge="1" parent="WIyWlLk6GJQsqaUBKTNV-1">
          <mxGeometry width="50" height="50" relative="1" as="geometry">
            <mxPoint x="340" y="43" as="sourcePoint" />
            <mxPoint x="340" y="73" as="targetPoint" />
          </mxGeometry>
        </mxCell>
        <mxCell id="co0fmw5V9fzFpIDW-5lj-9" value="utility function" style="text;html=1;align=center;verticalAlign=middle;whiteSpace=wrap;rounded=0;" vertex="1" parent="WIyWlLk6GJQsqaUBKTNV-1">
          <mxGeometry x="330" y="20" width="80" height="30" as="geometry" />
        </mxCell>
        <mxCell id="co0fmw5V9fzFpIDW-5lj-11" value="&lt;b&gt;(A)&lt;/b&gt;" style="text;html=1;align=center;verticalAlign=middle;whiteSpace=wrap;rounded=0;" vertex="1" parent="WIyWlLk6GJQsqaUBKTNV-1">
          <mxGeometry y="58" width="60" height="30" as="geometry" />
        </mxCell>
        <mxCell id="co0fmw5V9fzFpIDW-5lj-12" value="&lt;i&gt;planning or learning phase&lt;/i&gt;" style="text;html=1;align=center;verticalAlign=middle;whiteSpace=wrap;rounded=0;" vertex="1" parent="WIyWlLk6GJQsqaUBKTNV-1">
          <mxGeometry x="95" y="113" width="150" height="30" as="geometry" />
        </mxCell>
        <mxCell id="co0fmw5V9fzFpIDW-5lj-13" value="&lt;i&gt;selection phase&lt;/i&gt;" style="text;html=1;align=center;verticalAlign=middle;whiteSpace=wrap;rounded=0;" vertex="1" parent="WIyWlLk6GJQsqaUBKTNV-1">
          <mxGeometry x="350" y="113" width="90" height="30" as="geometry" />
        </mxCell>
        <mxCell id="co0fmw5V9fzFpIDW-5lj-14" value="" style="endArrow=none;dashed=1;html=1;dashPattern=1 3;strokeWidth=2;rounded=0;entryX=0;entryY=0;entryDx=0;entryDy=0;" edge="1" parent="WIyWlLk6GJQsqaUBKTNV-1">
          <mxGeometry width="50" height="50" relative="1" as="geometry">
            <mxPoint x="460" y="143" as="sourcePoint" />
            <mxPoint x="460" y="20" as="targetPoint" />
          </mxGeometry>
        </mxCell>
        <mxCell id="co0fmw5V9fzFpIDW-5lj-15" value="&lt;i&gt;execution phase&lt;/i&gt;" style="text;html=1;align=center;verticalAlign=middle;whiteSpace=wrap;rounded=0;" vertex="1" parent="WIyWlLk6GJQsqaUBKTNV-1">
          <mxGeometry x="470" y="113" width="90" height="30" as="geometry" />
        </mxCell>
        <mxCell id="co0fmw5V9fzFpIDW-5lj-16" value="" style="rounded=0;html=1;jettySize=auto;orthogonalLoop=1;fontSize=11;endArrow=classic;endFill=1;endSize=6;strokeWidth=1;shadow=0;labelBackgroundColor=none;edgeStyle=orthogonalEdgeStyle;entryX=0;entryY=0.5;entryDx=0;entryDy=0;" edge="1" parent="WIyWlLk6GJQsqaUBKTNV-1" source="co0fmw5V9fzFpIDW-5lj-17" target="co0fmw5V9fzFpIDW-5lj-19">
          <mxGeometry relative="1" as="geometry">
            <mxPoint x="160" y="213" as="targetPoint" />
          </mxGeometry>
        </mxCell>
        <mxCell id="co0fmw5V9fzFpIDW-5lj-17" value="MOMDP" style="rounded=1;whiteSpace=wrap;html=1;fontSize=12;glass=0;strokeWidth=1;shadow=0;" vertex="1" parent="WIyWlLk6GJQsqaUBKTNV-1">
          <mxGeometry x="50" y="193" width="60" height="40" as="geometry" />
        </mxCell>
        <mxCell id="co0fmw5V9fzFpIDW-5lj-18" value="" style="rounded=0;html=1;jettySize=auto;orthogonalLoop=1;fontSize=11;endArrow=classic;endFill=1;endSize=6;strokeWidth=1;shadow=0;labelBackgroundColor=none;edgeStyle=orthogonalEdgeStyle;exitX=1;exitY=0.5;exitDx=0;exitDy=0;entryX=0;entryY=0.5;entryDx=0;entryDy=0;" edge="1" parent="WIyWlLk6GJQsqaUBKTNV-1" source="co0fmw5V9fzFpIDW-5lj-19" target="co0fmw5V9fzFpIDW-5lj-25">
          <mxGeometry y="20" relative="1" as="geometry">
            <mxPoint as="offset" />
            <mxPoint x="210" y="253" as="sourcePoint" />
            <mxPoint x="280" y="213" as="targetPoint" />
          </mxGeometry>
        </mxCell>
        <mxCell id="co0fmw5V9fzFpIDW-5lj-19" value="Algorithm" style="rounded=1;whiteSpace=wrap;html=1;fontSize=12;glass=0;strokeWidth=1;shadow=0;" vertex="1" parent="WIyWlLk6GJQsqaUBKTNV-1">
          <mxGeometry x="130" y="193" width="80" height="40" as="geometry" />
        </mxCell>
        <mxCell id="co0fmw5V9fzFpIDW-5lj-20" value="" style="endArrow=none;dashed=1;html=1;dashPattern=1 3;strokeWidth=2;rounded=0;entryX=0;entryY=0;entryDx=0;entryDy=0;" edge="1" parent="WIyWlLk6GJQsqaUBKTNV-1">
          <mxGeometry width="50" height="50" relative="1" as="geometry">
            <mxPoint x="330" y="283" as="sourcePoint" />
            <mxPoint x="330" y="160" as="targetPoint" />
          </mxGeometry>
        </mxCell>
        <mxCell id="co0fmw5V9fzFpIDW-5lj-21" value="User Selection" style="rounded=1;whiteSpace=wrap;html=1;fontSize=12;glass=0;strokeWidth=1;shadow=0;" vertex="1" parent="WIyWlLk6GJQsqaUBKTNV-1">
          <mxGeometry x="355" y="193" width="80" height="40" as="geometry" />
        </mxCell>
        <mxCell id="co0fmw5V9fzFpIDW-5lj-22" value="" style="edgeStyle=orthogonalEdgeStyle;rounded=0;orthogonalLoop=1;jettySize=auto;html=1;exitX=1;exitY=0.5;exitDx=0;exitDy=0;entryX=0;entryY=0.5;entryDx=0;entryDy=0;" edge="1" parent="WIyWlLk6GJQsqaUBKTNV-1" source="co0fmw5V9fzFpIDW-5lj-21" target="co0fmw5V9fzFpIDW-5lj-23">
          <mxGeometry relative="1" as="geometry">
            <mxPoint x="500" y="213" as="sourcePoint" />
            <mxPoint x="390" y="213" as="targetPoint" />
          </mxGeometry>
        </mxCell>
        <mxCell id="co0fmw5V9fzFpIDW-5lj-23" value="Single Solution" style="rounded=1;whiteSpace=wrap;html=1;fontSize=12;glass=0;strokeWidth=1;shadow=0;" vertex="1" parent="WIyWlLk6GJQsqaUBKTNV-1">
          <mxGeometry x="470" y="193" width="80" height="40" as="geometry" />
        </mxCell>
        <mxCell id="co0fmw5V9fzFpIDW-5lj-24" value="" style="edgeStyle=orthogonalEdgeStyle;rounded=0;orthogonalLoop=1;jettySize=auto;html=1;" edge="1" parent="WIyWlLk6GJQsqaUBKTNV-1" source="co0fmw5V9fzFpIDW-5lj-25" target="co0fmw5V9fzFpIDW-5lj-21">
          <mxGeometry relative="1" as="geometry" />
        </mxCell>
        <mxCell id="co0fmw5V9fzFpIDW-5lj-25" value="Solution Set" style="rounded=1;whiteSpace=wrap;html=1;fontSize=12;glass=0;strokeWidth=1;shadow=0;" vertex="1" parent="WIyWlLk6GJQsqaUBKTNV-1">
          <mxGeometry x="230" y="193" width="80" height="40" as="geometry" />
        </mxCell>
        <mxCell id="co0fmw5V9fzFpIDW-5lj-28" value="&lt;b&gt;(B)&lt;/b&gt;" style="text;html=1;align=center;verticalAlign=middle;whiteSpace=wrap;rounded=0;" vertex="1" parent="WIyWlLk6GJQsqaUBKTNV-1">
          <mxGeometry y="198" width="60" height="30" as="geometry" />
        </mxCell>
        <mxCell id="co0fmw5V9fzFpIDW-5lj-29" value="&lt;i&gt;planning or learning phase&lt;/i&gt;" style="text;html=1;align=center;verticalAlign=middle;whiteSpace=wrap;rounded=0;" vertex="1" parent="WIyWlLk6GJQsqaUBKTNV-1">
          <mxGeometry x="95" y="253" width="150" height="30" as="geometry" />
        </mxCell>
        <mxCell id="co0fmw5V9fzFpIDW-5lj-30" value="&lt;i&gt;selection phase&lt;/i&gt;" style="text;html=1;align=center;verticalAlign=middle;whiteSpace=wrap;rounded=0;" vertex="1" parent="WIyWlLk6GJQsqaUBKTNV-1">
          <mxGeometry x="350" y="253" width="90" height="30" as="geometry" />
        </mxCell>
        <mxCell id="co0fmw5V9fzFpIDW-5lj-31" value="" style="endArrow=none;dashed=1;html=1;dashPattern=1 3;strokeWidth=2;rounded=0;entryX=0;entryY=0;entryDx=0;entryDy=0;" edge="1" parent="WIyWlLk6GJQsqaUBKTNV-1">
          <mxGeometry width="50" height="50" relative="1" as="geometry">
            <mxPoint x="460" y="283" as="sourcePoint" />
            <mxPoint x="460" y="160" as="targetPoint" />
          </mxGeometry>
        </mxCell>
        <mxCell id="co0fmw5V9fzFpIDW-5lj-32" value="&lt;i&gt;execution phase&lt;/i&gt;" style="text;html=1;align=center;verticalAlign=middle;whiteSpace=wrap;rounded=0;" vertex="1" parent="WIyWlLk6GJQsqaUBKTNV-1">
          <mxGeometry x="470" y="253" width="90" height="30" as="geometry" />
        </mxCell>
        <mxCell id="co0fmw5V9fzFpIDW-5lj-33" value="" style="rounded=0;html=1;jettySize=auto;orthogonalLoop=1;fontSize=11;endArrow=classic;endFill=1;endSize=6;strokeWidth=1;shadow=0;labelBackgroundColor=none;edgeStyle=orthogonalEdgeStyle;entryX=0;entryY=0.5;entryDx=0;entryDy=0;" edge="1" parent="WIyWlLk6GJQsqaUBKTNV-1" source="co0fmw5V9fzFpIDW-5lj-34" target="co0fmw5V9fzFpIDW-5lj-36">
          <mxGeometry relative="1" as="geometry">
            <mxPoint x="160" y="353" as="targetPoint" />
          </mxGeometry>
        </mxCell>
        <mxCell id="co0fmw5V9fzFpIDW-5lj-34" value="MOMDP&lt;div&gt;&amp;nbsp;+&lt;/div&gt;&lt;div&gt;&amp;nbsp;utility function&lt;/div&gt;" style="rounded=1;whiteSpace=wrap;html=1;fontSize=12;glass=0;strokeWidth=1;shadow=0;" vertex="1" parent="WIyWlLk6GJQsqaUBKTNV-1">
          <mxGeometry x="50" y="321.25" width="60" height="63.5" as="geometry" />
        </mxCell>
        <mxCell id="co0fmw5V9fzFpIDW-5lj-35" value="" style="rounded=0;html=1;jettySize=auto;orthogonalLoop=1;fontSize=11;endArrow=classic;endFill=1;endSize=6;strokeWidth=1;shadow=0;labelBackgroundColor=none;edgeStyle=orthogonalEdgeStyle;exitX=1;exitY=0.5;exitDx=0;exitDy=0;entryX=0;entryY=0.5;entryDx=0;entryDy=0;" edge="1" parent="WIyWlLk6GJQsqaUBKTNV-1" source="co0fmw5V9fzFpIDW-5lj-36" target="co0fmw5V9fzFpIDW-5lj-40">
          <mxGeometry y="20" relative="1" as="geometry">
            <mxPoint as="offset" />
            <mxPoint x="210" y="393" as="sourcePoint" />
            <mxPoint x="230" y="353" as="targetPoint" />
          </mxGeometry>
        </mxCell>
        <mxCell id="co0fmw5V9fzFpIDW-5lj-36" value="Algorithm" style="rounded=1;whiteSpace=wrap;html=1;fontSize=12;glass=0;strokeWidth=1;shadow=0;" vertex="1" parent="WIyWlLk6GJQsqaUBKTNV-1">
          <mxGeometry x="130" y="333" width="80" height="40" as="geometry" />
        </mxCell>
        <mxCell id="co0fmw5V9fzFpIDW-5lj-37" value="" style="endArrow=none;dashed=1;html=1;dashPattern=1 3;strokeWidth=2;rounded=0;entryX=0;entryY=0;entryDx=0;entryDy=0;" edge="1" parent="WIyWlLk6GJQsqaUBKTNV-1">
          <mxGeometry width="50" height="50" relative="1" as="geometry">
            <mxPoint x="330" y="423" as="sourcePoint" />
            <mxPoint x="330" y="300" as="targetPoint" />
          </mxGeometry>
        </mxCell>
        <mxCell id="co0fmw5V9fzFpIDW-5lj-40" value="Single Solution" style="rounded=1;whiteSpace=wrap;html=1;fontSize=12;glass=0;strokeWidth=1;shadow=0;" vertex="1" parent="WIyWlLk6GJQsqaUBKTNV-1">
          <mxGeometry x="470" y="333" width="80" height="40" as="geometry" />
        </mxCell>
        <mxCell id="co0fmw5V9fzFpIDW-5lj-45" value="&lt;b&gt;(C)&lt;/b&gt;" style="text;html=1;align=center;verticalAlign=middle;whiteSpace=wrap;rounded=0;" vertex="1" parent="WIyWlLk6GJQsqaUBKTNV-1">
          <mxGeometry y="338" width="60" height="30" as="geometry" />
        </mxCell>
        <mxCell id="co0fmw5V9fzFpIDW-5lj-46" value="&lt;i&gt;planning or learning phase&lt;/i&gt;" style="text;html=1;align=center;verticalAlign=middle;whiteSpace=wrap;rounded=0;" vertex="1" parent="WIyWlLk6GJQsqaUBKTNV-1">
          <mxGeometry x="95" y="393" width="150" height="30" as="geometry" />
        </mxCell>
        <mxCell id="co0fmw5V9fzFpIDW-5lj-49" value="&lt;i&gt;execution phase&lt;/i&gt;" style="text;html=1;align=center;verticalAlign=middle;whiteSpace=wrap;rounded=0;" vertex="1" parent="WIyWlLk6GJQsqaUBKTNV-1">
          <mxGeometry x="470" y="393" width="90" height="30" as="geometry" />
        </mxCell>
        <mxCell id="co0fmw5V9fzFpIDW-5lj-50" value="" style="rounded=0;html=1;jettySize=auto;orthogonalLoop=1;fontSize=11;endArrow=classic;endFill=1;endSize=6;strokeWidth=1;shadow=0;labelBackgroundColor=none;edgeStyle=orthogonalEdgeStyle;entryX=0;entryY=0.5;entryDx=0;entryDy=0;" edge="1" parent="WIyWlLk6GJQsqaUBKTNV-1" source="co0fmw5V9fzFpIDW-5lj-51" target="co0fmw5V9fzFpIDW-5lj-53">
          <mxGeometry relative="1" as="geometry">
            <mxPoint x="160" y="493" as="targetPoint" />
          </mxGeometry>
        </mxCell>
        <mxCell id="co0fmw5V9fzFpIDW-5lj-51" value="MOMDP" style="rounded=1;whiteSpace=wrap;html=1;fontSize=12;glass=0;strokeWidth=1;shadow=0;" vertex="1" parent="WIyWlLk6GJQsqaUBKTNV-1">
          <mxGeometry x="50" y="473" width="60" height="40" as="geometry" />
        </mxCell>
        <mxCell id="co0fmw5V9fzFpIDW-5lj-53" value="Algorithm" style="rounded=1;whiteSpace=wrap;html=1;fontSize=12;glass=0;strokeWidth=1;shadow=0;" vertex="1" parent="WIyWlLk6GJQsqaUBKTNV-1">
          <mxGeometry x="130" y="473" width="80" height="40" as="geometry" />
        </mxCell>
        <mxCell id="co0fmw5V9fzFpIDW-5lj-54" value="" style="endArrow=none;dashed=1;html=1;dashPattern=1 3;strokeWidth=2;rounded=0;entryX=0;entryY=0;entryDx=0;entryDy=0;" edge="1" parent="WIyWlLk6GJQsqaUBKTNV-1">
          <mxGeometry width="50" height="50" relative="1" as="geometry">
            <mxPoint x="330" y="563" as="sourcePoint" />
            <mxPoint x="330" y="440" as="targetPoint" />
          </mxGeometry>
        </mxCell>
        <mxCell id="co0fmw5V9fzFpIDW-5lj-56" value="" style="edgeStyle=orthogonalEdgeStyle;rounded=0;orthogonalLoop=1;jettySize=auto;html=1;entryX=0;entryY=0.5;entryDx=0;entryDy=0;exitX=1;exitY=0.5;exitDx=0;exitDy=0;" edge="1" parent="WIyWlLk6GJQsqaUBKTNV-1" source="co0fmw5V9fzFpIDW-5lj-53" target="co0fmw5V9fzFpIDW-5lj-57">
          <mxGeometry relative="1" as="geometry">
            <mxPoint x="450" y="493" as="sourcePoint" />
            <mxPoint x="390" y="493" as="targetPoint" />
          </mxGeometry>
        </mxCell>
        <mxCell id="co0fmw5V9fzFpIDW-5lj-57" value="Single Solution" style="rounded=1;whiteSpace=wrap;html=1;fontSize=12;glass=0;strokeWidth=1;shadow=0;" vertex="1" parent="WIyWlLk6GJQsqaUBKTNV-1">
          <mxGeometry x="470" y="473" width="80" height="40" as="geometry" />
        </mxCell>
        <mxCell id="co0fmw5V9fzFpIDW-5lj-62" value="&lt;b&gt;(D)&lt;/b&gt;" style="text;html=1;align=center;verticalAlign=middle;whiteSpace=wrap;rounded=0;" vertex="1" parent="WIyWlLk6GJQsqaUBKTNV-1">
          <mxGeometry y="478" width="60" height="30" as="geometry" />
        </mxCell>
        <mxCell id="co0fmw5V9fzFpIDW-5lj-63" value="&lt;i&gt;planning or learning phase&lt;/i&gt;" style="text;html=1;align=center;verticalAlign=middle;whiteSpace=wrap;rounded=0;" vertex="1" parent="WIyWlLk6GJQsqaUBKTNV-1">
          <mxGeometry x="95" y="533" width="150" height="30" as="geometry" />
        </mxCell>
        <mxCell id="co0fmw5V9fzFpIDW-5lj-66" value="&lt;i&gt;execution phase&lt;/i&gt;" style="text;html=1;align=center;verticalAlign=middle;whiteSpace=wrap;rounded=0;" vertex="1" parent="WIyWlLk6GJQsqaUBKTNV-1">
          <mxGeometry x="470" y="533" width="90" height="30" as="geometry" />
        </mxCell>
        <mxCell id="co0fmw5V9fzFpIDW-5lj-67" value="" style="rounded=0;html=1;jettySize=auto;orthogonalLoop=1;fontSize=11;endArrow=classic;endFill=1;endSize=6;strokeWidth=1;shadow=0;labelBackgroundColor=none;edgeStyle=orthogonalEdgeStyle;entryX=0;entryY=0.5;entryDx=0;entryDy=0;" edge="1" parent="WIyWlLk6GJQsqaUBKTNV-1" source="co0fmw5V9fzFpIDW-5lj-68" target="co0fmw5V9fzFpIDW-5lj-70">
          <mxGeometry relative="1" as="geometry">
            <mxPoint x="160" y="633" as="targetPoint" />
          </mxGeometry>
        </mxCell>
        <mxCell id="co0fmw5V9fzFpIDW-5lj-68" value="MOMDP" style="rounded=1;whiteSpace=wrap;html=1;fontSize=12;glass=0;strokeWidth=1;shadow=0;" vertex="1" parent="WIyWlLk6GJQsqaUBKTNV-1">
          <mxGeometry x="50" y="613" width="60" height="40" as="geometry" />
        </mxCell>
        <mxCell id="co0fmw5V9fzFpIDW-5lj-69" value="" style="rounded=0;html=1;jettySize=auto;orthogonalLoop=1;fontSize=11;endArrow=classic;endFill=1;endSize=6;strokeWidth=1;shadow=0;labelBackgroundColor=none;edgeStyle=orthogonalEdgeStyle;exitX=1;exitY=0.5;exitDx=0;exitDy=0;entryX=0;entryY=0.5;entryDx=0;entryDy=0;" edge="1" parent="WIyWlLk6GJQsqaUBKTNV-1" source="co0fmw5V9fzFpIDW-5lj-70" target="co0fmw5V9fzFpIDW-5lj-76">
          <mxGeometry y="20" relative="1" as="geometry">
            <mxPoint as="offset" />
            <mxPoint x="210" y="673" as="sourcePoint" />
            <mxPoint x="280" y="633" as="targetPoint" />
          </mxGeometry>
        </mxCell>
        <mxCell id="co0fmw5V9fzFpIDW-5lj-70" value="Algorithm" style="rounded=1;whiteSpace=wrap;html=1;fontSize=12;glass=0;strokeWidth=1;shadow=0;" vertex="1" parent="WIyWlLk6GJQsqaUBKTNV-1">
          <mxGeometry x="130" y="613" width="80" height="40" as="geometry" />
        </mxCell>
        <mxCell id="co0fmw5V9fzFpIDW-5lj-71" value="" style="endArrow=none;dashed=1;html=1;dashPattern=1 3;strokeWidth=2;rounded=0;" edge="1" parent="WIyWlLk6GJQsqaUBKTNV-1">
          <mxGeometry width="50" height="50" relative="1" as="geometry">
            <mxPoint x="330" y="703" as="sourcePoint" />
            <mxPoint x="330" y="590" as="targetPoint" />
          </mxGeometry>
        </mxCell>
        <mxCell id="co0fmw5V9fzFpIDW-5lj-72" value="Scalarization" style="rounded=1;whiteSpace=wrap;html=1;fontSize=12;glass=0;strokeWidth=1;shadow=0;" vertex="1" parent="WIyWlLk6GJQsqaUBKTNV-1">
          <mxGeometry x="370" y="613" width="80" height="40" as="geometry" />
        </mxCell>
        <mxCell id="co0fmw5V9fzFpIDW-5lj-73" value="" style="edgeStyle=orthogonalEdgeStyle;rounded=0;orthogonalLoop=1;jettySize=auto;html=1;exitX=1;exitY=0.5;exitDx=0;exitDy=0;entryX=0;entryY=0.5;entryDx=0;entryDy=0;" edge="1" parent="WIyWlLk6GJQsqaUBKTNV-1" source="co0fmw5V9fzFpIDW-5lj-72" target="co0fmw5V9fzFpIDW-5lj-74">
          <mxGeometry relative="1" as="geometry">
            <mxPoint x="500" y="633" as="sourcePoint" />
            <mxPoint x="390" y="633" as="targetPoint" />
          </mxGeometry>
        </mxCell>
        <mxCell id="co0fmw5V9fzFpIDW-5lj-74" value="Single Solution" style="rounded=1;whiteSpace=wrap;html=1;fontSize=12;glass=0;strokeWidth=1;shadow=0;" vertex="1" parent="WIyWlLk6GJQsqaUBKTNV-1">
          <mxGeometry x="470" y="613" width="80" height="40" as="geometry" />
        </mxCell>
        <mxCell id="co0fmw5V9fzFpIDW-5lj-75" value="" style="edgeStyle=orthogonalEdgeStyle;rounded=0;orthogonalLoop=1;jettySize=auto;html=1;" edge="1" parent="WIyWlLk6GJQsqaUBKTNV-1" source="co0fmw5V9fzFpIDW-5lj-76" target="co0fmw5V9fzFpIDW-5lj-72">
          <mxGeometry relative="1" as="geometry" />
        </mxCell>
        <mxCell id="co0fmw5V9fzFpIDW-5lj-76" value="Solution Set" style="rounded=1;whiteSpace=wrap;html=1;fontSize=12;glass=0;strokeWidth=1;shadow=0;" vertex="1" parent="WIyWlLk6GJQsqaUBKTNV-1">
          <mxGeometry x="230" y="613" width="80" height="40" as="geometry" />
        </mxCell>
        <mxCell id="co0fmw5V9fzFpIDW-5lj-78" value="utility function updates" style="text;html=1;align=center;verticalAlign=middle;whiteSpace=wrap;rounded=0;" vertex="1" parent="WIyWlLk6GJQsqaUBKTNV-1">
          <mxGeometry x="220" y="574.5" width="80" height="30" as="geometry" />
        </mxCell>
        <mxCell id="co0fmw5V9fzFpIDW-5lj-79" value="&lt;b&gt;(E)&lt;/b&gt;" style="text;html=1;align=center;verticalAlign=middle;whiteSpace=wrap;rounded=0;" vertex="1" parent="WIyWlLk6GJQsqaUBKTNV-1">
          <mxGeometry y="618" width="60" height="30" as="geometry" />
        </mxCell>
        <mxCell id="co0fmw5V9fzFpIDW-5lj-80" value="&lt;i&gt;planning or learning phase&lt;/i&gt;" style="text;html=1;align=center;verticalAlign=middle;whiteSpace=wrap;rounded=0;" vertex="1" parent="WIyWlLk6GJQsqaUBKTNV-1">
          <mxGeometry x="95" y="673" width="150" height="30" as="geometry" />
        </mxCell>
        <mxCell id="co0fmw5V9fzFpIDW-5lj-81" value="&lt;i&gt;repeated selection and execution phase&lt;/i&gt;" style="text;html=1;align=center;verticalAlign=middle;whiteSpace=wrap;rounded=0;" vertex="1" parent="WIyWlLk6GJQsqaUBKTNV-1">
          <mxGeometry x="330" y="673" width="240" height="30" as="geometry" />
        </mxCell>
        <mxCell id="co0fmw5V9fzFpIDW-5lj-84" value="" style="rounded=0;html=1;jettySize=auto;orthogonalLoop=1;fontSize=11;endArrow=classic;endFill=1;endSize=6;strokeWidth=1;shadow=0;labelBackgroundColor=none;edgeStyle=orthogonalEdgeStyle;entryX=0;entryY=0.5;entryDx=0;entryDy=0;" edge="1" parent="WIyWlLk6GJQsqaUBKTNV-1" source="co0fmw5V9fzFpIDW-5lj-85" target="co0fmw5V9fzFpIDW-5lj-87">
          <mxGeometry relative="1" as="geometry">
            <mxPoint x="160" y="773" as="targetPoint" />
          </mxGeometry>
        </mxCell>
        <mxCell id="co0fmw5V9fzFpIDW-5lj-85" value="MOMDP" style="rounded=1;whiteSpace=wrap;html=1;fontSize=12;glass=0;strokeWidth=1;shadow=0;" vertex="1" parent="WIyWlLk6GJQsqaUBKTNV-1">
          <mxGeometry x="50" y="753" width="60" height="40" as="geometry" />
        </mxCell>
        <mxCell id="co0fmw5V9fzFpIDW-5lj-86" value="" style="rounded=0;html=1;jettySize=auto;orthogonalLoop=1;fontSize=11;endArrow=classic;endFill=1;endSize=6;strokeWidth=1;shadow=0;labelBackgroundColor=none;edgeStyle=orthogonalEdgeStyle;exitX=1;exitY=0.5;exitDx=0;exitDy=0;entryX=0;entryY=0.5;entryDx=0;entryDy=0;" edge="1" parent="WIyWlLk6GJQsqaUBKTNV-1" source="co0fmw5V9fzFpIDW-5lj-87" target="co0fmw5V9fzFpIDW-5lj-93">
          <mxGeometry y="20" relative="1" as="geometry">
            <mxPoint as="offset" />
            <mxPoint x="210" y="813" as="sourcePoint" />
            <mxPoint x="280" y="773" as="targetPoint" />
          </mxGeometry>
        </mxCell>
        <mxCell id="co0fmw5V9fzFpIDW-5lj-87" value="Algorithm" style="rounded=1;whiteSpace=wrap;html=1;fontSize=12;glass=0;strokeWidth=1;shadow=0;" vertex="1" parent="WIyWlLk6GJQsqaUBKTNV-1">
          <mxGeometry x="130" y="753" width="80" height="40" as="geometry" />
        </mxCell>
        <mxCell id="co0fmw5V9fzFpIDW-5lj-88" value="" style="endArrow=none;dashed=1;html=1;dashPattern=1 3;strokeWidth=2;rounded=0;entryX=0;entryY=0;entryDx=0;entryDy=0;" edge="1" parent="WIyWlLk6GJQsqaUBKTNV-1">
          <mxGeometry width="50" height="50" relative="1" as="geometry">
            <mxPoint x="330" y="843" as="sourcePoint" />
            <mxPoint x="330" y="720" as="targetPoint" />
          </mxGeometry>
        </mxCell>
        <mxCell id="co0fmw5V9fzFpIDW-5lj-89" value="User Selection" style="rounded=1;whiteSpace=wrap;html=1;fontSize=12;glass=0;strokeWidth=1;shadow=0;" vertex="1" parent="WIyWlLk6GJQsqaUBKTNV-1">
          <mxGeometry x="355" y="753" width="80" height="40" as="geometry" />
        </mxCell>
        <mxCell id="co0fmw5V9fzFpIDW-5lj-90" value="" style="edgeStyle=orthogonalEdgeStyle;rounded=0;orthogonalLoop=1;jettySize=auto;html=1;exitX=1;exitY=0.5;exitDx=0;exitDy=0;entryX=0;entryY=0.5;entryDx=0;entryDy=0;" edge="1" parent="WIyWlLk6GJQsqaUBKTNV-1" source="co0fmw5V9fzFpIDW-5lj-89" target="co0fmw5V9fzFpIDW-5lj-91">
          <mxGeometry relative="1" as="geometry">
            <mxPoint x="500" y="773" as="sourcePoint" />
            <mxPoint x="390" y="773" as="targetPoint" />
          </mxGeometry>
        </mxCell>
        <mxCell id="co0fmw5V9fzFpIDW-5lj-91" value="Single Solution" style="rounded=1;whiteSpace=wrap;html=1;fontSize=12;glass=0;strokeWidth=1;shadow=0;" vertex="1" parent="WIyWlLk6GJQsqaUBKTNV-1">
          <mxGeometry x="470" y="753" width="80" height="40" as="geometry" />
        </mxCell>
        <mxCell id="co0fmw5V9fzFpIDW-5lj-92" value="" style="edgeStyle=orthogonalEdgeStyle;rounded=0;orthogonalLoop=1;jettySize=auto;html=1;" edge="1" parent="WIyWlLk6GJQsqaUBKTNV-1" source="co0fmw5V9fzFpIDW-5lj-93" target="co0fmw5V9fzFpIDW-5lj-89">
          <mxGeometry relative="1" as="geometry" />
        </mxCell>
        <mxCell id="co0fmw5V9fzFpIDW-5lj-93" value="Solution Set" style="rounded=1;whiteSpace=wrap;html=1;fontSize=12;glass=0;strokeWidth=1;shadow=0;" vertex="1" parent="WIyWlLk6GJQsqaUBKTNV-1">
          <mxGeometry x="230" y="753" width="80" height="40" as="geometry" />
        </mxCell>
        <mxCell id="co0fmw5V9fzFpIDW-5lj-96" value="&lt;b&gt;(F)&lt;/b&gt;" style="text;html=1;align=center;verticalAlign=middle;whiteSpace=wrap;rounded=0;" vertex="1" parent="WIyWlLk6GJQsqaUBKTNV-1">
          <mxGeometry y="758" width="60" height="30" as="geometry" />
        </mxCell>
        <mxCell id="co0fmw5V9fzFpIDW-5lj-97" value="&lt;i&gt;planning or learning phase&lt;/i&gt;" style="text;html=1;align=center;verticalAlign=middle;whiteSpace=wrap;rounded=0;" vertex="1" parent="WIyWlLk6GJQsqaUBKTNV-1">
          <mxGeometry x="95" y="813" width="150" height="30" as="geometry" />
        </mxCell>
        <mxCell id="co0fmw5V9fzFpIDW-5lj-98" value="&lt;i&gt;selection phase&lt;/i&gt;" style="text;html=1;align=center;verticalAlign=middle;whiteSpace=wrap;rounded=0;" vertex="1" parent="WIyWlLk6GJQsqaUBKTNV-1">
          <mxGeometry x="350" y="813" width="90" height="30" as="geometry" />
        </mxCell>
        <mxCell id="co0fmw5V9fzFpIDW-5lj-99" value="" style="endArrow=none;dashed=1;html=1;dashPattern=1 3;strokeWidth=2;rounded=0;entryX=0;entryY=0;entryDx=0;entryDy=0;" edge="1" parent="WIyWlLk6GJQsqaUBKTNV-1">
          <mxGeometry width="50" height="50" relative="1" as="geometry">
            <mxPoint x="460" y="843" as="sourcePoint" />
            <mxPoint x="460" y="720" as="targetPoint" />
          </mxGeometry>
        </mxCell>
        <mxCell id="co0fmw5V9fzFpIDW-5lj-100" value="&lt;i&gt;execution and review phase&lt;/i&gt;" style="text;html=1;align=center;verticalAlign=middle;whiteSpace=wrap;rounded=0;" vertex="1" parent="WIyWlLk6GJQsqaUBKTNV-1">
          <mxGeometry x="470" y="813" width="160" height="30" as="geometry" />
        </mxCell>
        <mxCell id="co0fmw5V9fzFpIDW-5lj-101" value="" style="endArrow=none;html=1;rounded=0;strokeColor=#878787;" edge="1" parent="WIyWlLk6GJQsqaUBKTNV-1">
          <mxGeometry width="50" height="50" relative="1" as="geometry">
            <mxPoint y="152" as="sourcePoint" />
            <mxPoint x="560" y="152" as="targetPoint" />
          </mxGeometry>
        </mxCell>
        <mxCell id="co0fmw5V9fzFpIDW-5lj-102" value="" style="endArrow=none;html=1;rounded=0;strokeColor=#878787;" edge="1" parent="WIyWlLk6GJQsqaUBKTNV-1">
          <mxGeometry width="50" height="50" relative="1" as="geometry">
            <mxPoint y="290" as="sourcePoint" />
            <mxPoint x="560" y="290" as="targetPoint" />
          </mxGeometry>
        </mxCell>
        <mxCell id="co0fmw5V9fzFpIDW-5lj-103" value="" style="endArrow=none;html=1;rounded=0;strokeColor=#878787;" edge="1" parent="WIyWlLk6GJQsqaUBKTNV-1">
          <mxGeometry width="50" height="50" relative="1" as="geometry">
            <mxPoint y="430" as="sourcePoint" />
            <mxPoint x="560" y="430" as="targetPoint" />
          </mxGeometry>
        </mxCell>
        <mxCell id="co0fmw5V9fzFpIDW-5lj-104" value="" style="endArrow=none;html=1;rounded=0;strokeColor=#878787;" edge="1" parent="WIyWlLk6GJQsqaUBKTNV-1">
          <mxGeometry width="50" height="50" relative="1" as="geometry">
            <mxPoint y="570" as="sourcePoint" />
            <mxPoint x="560" y="570" as="targetPoint" />
          </mxGeometry>
        </mxCell>
        <mxCell id="co0fmw5V9fzFpIDW-5lj-105" value="" style="endArrow=none;html=1;rounded=0;strokeColor=#878787;" edge="1" parent="WIyWlLk6GJQsqaUBKTNV-1">
          <mxGeometry width="50" height="50" relative="1" as="geometry">
            <mxPoint y="710" as="sourcePoint" />
            <mxPoint x="560" y="710" as="targetPoint" />
          </mxGeometry>
        </mxCell>
        <mxCell id="co0fmw5V9fzFpIDW-5lj-106" value="" style="endArrow=classic;html=1;rounded=0;exitX=1;exitY=0.25;exitDx=0;exitDy=0;entryX=0.85;entryY=0.05;entryDx=0;entryDy=0;entryPerimeter=0;" edge="1" parent="WIyWlLk6GJQsqaUBKTNV-1" source="co0fmw5V9fzFpIDW-5lj-53" target="co0fmw5V9fzFpIDW-5lj-53">
          <mxGeometry width="50" height="50" relative="1" as="geometry">
            <mxPoint x="210" y="460" as="sourcePoint" />
            <mxPoint x="200" y="470" as="targetPoint" />
            <Array as="points">
              <mxPoint x="240" y="483" />
              <mxPoint x="240" y="450" />
              <mxPoint x="198" y="450" />
            </Array>
          </mxGeometry>
        </mxCell>
        <mxCell id="co0fmw5V9fzFpIDW-5lj-107" value="interactions with user" style="text;html=1;align=center;verticalAlign=middle;whiteSpace=wrap;rounded=0;" vertex="1" parent="WIyWlLk6GJQsqaUBKTNV-1">
          <mxGeometry x="240" y="450" width="80" height="30" as="geometry" />
        </mxCell>
        <mxCell id="co0fmw5V9fzFpIDW-5lj-108" value="" style="endArrow=classic;html=1;rounded=0;entryX=0.5;entryY=0;entryDx=0;entryDy=0;" edge="1" parent="WIyWlLk6GJQsqaUBKTNV-1" target="co0fmw5V9fzFpIDW-5lj-70">
          <mxGeometry width="50" height="50" relative="1" as="geometry">
            <mxPoint x="220" y="590" as="sourcePoint" />
            <mxPoint x="170" y="623" as="targetPoint" />
            <Array as="points">
              <mxPoint x="170" y="590" />
            </Array>
          </mxGeometry>
        </mxCell>
        <mxCell id="co0fmw5V9fzFpIDW-5lj-109" value="" style="endArrow=classic;html=1;rounded=0;" edge="1" parent="WIyWlLk6GJQsqaUBKTNV-1">
          <mxGeometry width="50" height="50" relative="1" as="geometry">
            <mxPoint x="300" y="590" as="sourcePoint" />
            <mxPoint x="350" y="633" as="targetPoint" />
            <Array as="points">
              <mxPoint x="350" y="590" />
            </Array>
          </mxGeometry>
        </mxCell>
        <mxCell id="co0fmw5V9fzFpIDW-5lj-116" value="" style="edgeStyle=orthogonalEdgeStyle;rounded=0;orthogonalLoop=1;jettySize=auto;html=1;" edge="1" parent="WIyWlLk6GJQsqaUBKTNV-1" source="co0fmw5V9fzFpIDW-5lj-91" target="co0fmw5V9fzFpIDW-5lj-113">
          <mxGeometry relative="1" as="geometry">
            <mxPoint x="550" y="773" as="sourcePoint" />
            <mxPoint x="609.9999999999998" y="773" as="targetPoint" />
          </mxGeometry>
        </mxCell>
        <mxCell id="co0fmw5V9fzFpIDW-5lj-113" value="User Review" style="rounded=1;whiteSpace=wrap;html=1;fontSize=12;glass=0;strokeWidth=1;shadow=0;" vertex="1" parent="WIyWlLk6GJQsqaUBKTNV-1">
          <mxGeometry x="570" y="753" width="80" height="40" as="geometry" />
        </mxCell>
        <mxCell id="co0fmw5V9fzFpIDW-5lj-117" value="" style="endArrow=classic;html=1;rounded=0;exitX=0.5;exitY=0;exitDx=0;exitDy=0;entryX=0.5;entryY=0;entryDx=0;entryDy=0;" edge="1" parent="WIyWlLk6GJQsqaUBKTNV-1" source="co0fmw5V9fzFpIDW-5lj-113" target="co0fmw5V9fzFpIDW-5lj-89">
          <mxGeometry width="50" height="50" relative="1" as="geometry">
            <mxPoint x="490" y="660" as="sourcePoint" />
            <mxPoint x="540" y="610" as="targetPoint" />
            <Array as="points">
              <mxPoint x="610" y="730" />
              <mxPoint x="395" y="730" />
            </Array>
          </mxGeometry>
        </mxCell>
        <mxCell id="co0fmw5V9fzFpIDW-5lj-118" value="" style="endArrow=classic;html=1;rounded=0;exitX=0.5;exitY=0;exitDx=0;exitDy=0;entryX=0.5;entryY=0;entryDx=0;entryDy=0;" edge="1" parent="WIyWlLk6GJQsqaUBKTNV-1" target="co0fmw5V9fzFpIDW-5lj-85">
          <mxGeometry width="50" height="50" relative="1" as="geometry">
            <mxPoint x="395" y="753" as="sourcePoint" />
            <mxPoint x="180" y="753" as="targetPoint" />
            <Array as="points">
              <mxPoint x="395" y="730" />
              <mxPoint x="80" y="730" />
            </Array>
          </mxGeometry>
        </mxCell>
      </root>
    </mxGraphModel>
  </diagram>
</mxfile>
